# xmcd
#
# Track frame offsets:
# 150
# 18498
# 42391
# 52519
# 67343
# 77792
# 87472
# 103516
# 117523
# 135829
#
# Disc length: 1959 seconds
#
#
# Revision: 0
# Processed by: cddbd v1.4PL0 Copyright (c) Steve Scherf et al.
# Submitted via: FreeRIP 2.40 
#
DISCID=7f07a50a
DTITLE=Sleazy Geezer - Geezerphoelia
DYEAR=2000
DGENRE=Geezer Booty
TTITLE0=Sleazy Geezer
TTITLE1=Hellhound On My Trail/Nobody's Fault But Mine
TTITLE2=Ramrod Daddy
TTITLE3=Banned In Boston
TTITLE4=Laundromat
TTITLE5=Take Me To Lunch
TTITLE6=Fallbrook Blues
TTITLE7=Same Thing All Over The World
TTITLE8=Me And The Devil
TTITLE9=Close Enough For Rock& Roll
EXTD=
EXTT0=
EXTT1=
EXTT2=
EXTT3=
EXTT4=
EXTT5=
EXTT6=
EXTT7=
EXTT8=
EXTT9=
PLAYORDER=
